<svg width="20" height="20" viewBox="0 0 20 20" fill="none" xmlns="http://www.w3.org/2000/svg">
<g clip-path="url(#clip0_832_3003)">
<path d="M2.5 15.5816V14.9381C2.57655 14.5341 2.77104 14.1799 2.96589 13.8246C3.44093 12.957 3.91195 12.0874 4.3848 11.2183C5.60263 8.97968 6.81899 6.74034 8.03829 4.50246C8.48659 3.6802 9.36416 3.2264 10.2743 3.35496C11.0369 3.46264 11.5936 3.87322 11.9602 4.54788C13.0982 6.64108 14.238 8.73355 15.376 10.8271C16.0067 11.9874 16.6466 13.1426 17.2597 14.3118C17.5795 14.9212 17.5744 15.5648 17.278 16.1863C16.8598 17.0635 16.136 17.4796 15.1793 17.4814C11.7192 17.4873 8.25878 17.4843 4.79868 17.4829C4.15881 17.4829 3.5922 17.2888 3.13217 16.8265C2.78642 16.4793 2.59669 16.0545 2.50037 15.5816H2.5ZM10.8527 10.0038C10.8527 9.33679 10.8523 8.66946 10.853 8.00249C10.853 7.89517 10.8461 7.78932 10.83 7.68274C10.7377 7.0828 10.0846 6.76598 9.55902 7.06925C9.23158 7.25824 9.1217 7.56334 9.12133 7.92044C9.12023 9.27892 9.12133 10.6374 9.12023 11.9959C9.12023 12.1083 9.12792 12.2189 9.14441 12.3303C9.22828 12.898 9.85862 13.2251 10.3692 12.9613C10.7204 12.7797 10.8516 12.4706 10.8523 12.0929C10.8538 11.3967 10.8527 10.7004 10.8527 10.0041V10.0038ZM9.97986 15.6871C10.4446 15.6922 10.8354 15.3069 10.8446 14.8348C10.8538 14.3733 10.4747 13.9854 10.0077 13.9781C9.52019 13.9704 9.13488 14.34 9.12829 14.8216C9.12206 15.2857 9.51214 15.6823 9.97949 15.6875L9.97986 15.6871Z" fill="#FE2121"/>
</g>
<defs>
<clipPath id="clip0_832_3003">
<rect width="15" height="14.1514" fill="white" transform="translate(2.5 3.33334)"/>
</clipPath>
</defs>
</svg>
