
<svg width="13" height="22" viewBox="0 0 13 22" fill="none" xmlns="http://www.w3.org/2000/svg">
<g clip-path="url(#clip0_974_517)">
<path d="M11.3459 21.5C11.6334 21.4201 11.8647 21.2588 12.0676 21.0504C12.2466 20.866 12.4396 20.6945 12.6214 20.5123C13.1079 20.0246 13.1268 19.3825 12.6726 18.8696C12.6131 18.8021 12.5463 18.7405 12.4813 18.6778C9.92196 16.2103 7.36152 13.7434 4.80275 11.2755C4.49416 10.9775 4.48971 11.045 4.79552 10.7503C7.3643 8.27264 9.93363 5.79502 12.5046 3.32008C12.8143 3.0221 13.0178 2.69197 12.9795 2.25036C12.9539 1.95506 12.821 1.7155 12.6125 1.5097C12.4051 1.30444 12.1944 1.10185 11.982 0.900879C11.4204 0.369768 10.7109 0.366552 10.1549 0.900879C8.91502 2.09119 7.67956 3.28524 6.44187 4.4777C4.51307 6.33631 2.58426 8.19493 0.656005 10.0541C0.00435776 10.6822 0.00324576 11.3366 0.653225 11.9631C3.77913 14.9745 6.90559 17.9864 10.0287 21.0016C10.2528 21.2176 10.4896 21.403 10.7938 21.5H11.3465H11.3459Z" fill="#333333"/>
</g>
<defs>
<clipPath id="clip0_974_517">
<rect width="12.8333" height="21" fill="white" transform="matrix(1 0 0 -1 0.166748 21.5)"/>
</clipPath>
</defs>
</svg>
