<svg width="26" height="26" viewBox="0 0 26 26" fill="none" xmlns="http://www.w3.org/2000/svg">
<g clip-path="url(#clip0_1013_5460)">
<path d="M23.292 8.57774C23.2178 8.31082 23.068 8.09604 22.8745 7.90759C22.7033 7.74134 22.544 7.56218 22.3748 7.39336C21.922 6.94159 21.3258 6.92404 20.8495 7.34586C20.7868 7.4011 20.7296 7.46306 20.6714 7.52346C18.3802 9.89998 16.0895 12.2775 13.7978 14.6535C13.5211 14.9401 13.5838 14.9442 13.3101 14.6602C11.0094 12.2749 8.70879 9.88914 6.41064 7.50178C6.13394 7.2142 5.82739 7.02523 5.41732 7.06086C5.14312 7.08461 4.92067 7.208 4.72957 7.40162C4.53897 7.5942 4.35086 7.78987 4.16424 7.9871C3.67106 8.50856 3.66808 9.16735 4.16424 9.68365C5.26952 10.835 6.37829 11.9822 7.48557 13.1315C9.21142 14.9225 10.9373 16.7136 12.6636 18.5041C13.2469 19.1092 13.8545 19.1102 14.4363 18.5067C17.2326 15.604 20.0294 12.7009 22.8292 9.80085C23.0297 9.59278 23.2019 9.37284 23.292 9.09043V8.57723V8.57774Z" fill="white"/>
</g>
<defs>
<clipPath id="clip0_1013_5460">
<rect width="11.9167" height="19.5" fill="white" transform="matrix(0 -1 -1 0 23.292 18.9583)"/>
</clipPath>
</defs>
</svg>
