
<svg width="22" height="22" viewBox="0 0 22 22" fill="none" xmlns="http://www.w3.org/2000/svg">
<path fill-rule="evenodd" clip-rule="evenodd" d="M21.5 11C21.5 16.799 16.799 21.5 11 21.5C5.20101 21.5 0.5 16.799 0.5 11C0.5 5.20101 5.20101 0.5 11 0.5C16.799 0.5 21.5 5.20101 21.5 11ZM10.994 12.125C13.522 12.1217 15.5033 10.1371 15.5 7.61325C15.496 5.12629 13.4844 3.09953 10.9822 3.12524C8.28123 3.15359 6.46102 5.35837 6.50063 7.6238C6.50856 10.1411 8.49316 12.1283 10.994 12.125ZM14.3659 11.9973C14.8412 11.6987 15.3639 11.7104 15.8089 12.0441L15.8096 12.0435C17.1308 13.033 18.0076 14.2913 18.4489 15.8108C18.5732 16.2398 18.4716 16.6103 18.1534 16.9446C16.5456 18.6331 14.5445 19.636 12.1287 19.9159C11.8619 19.9472 11.5936 19.9651 11.3574 19.9808C11.2622 19.9871 11.1722 19.9931 11.0896 19.9995C8.12461 19.9259 5.71888 18.9206 3.81816 16.9072C3.52588 16.5981 3.43498 16.2468 3.54545 15.85C3.97471 14.31 4.861 13.0406 6.19611 12.0423C6.64241 11.7086 7.16194 11.6993 7.63917 12.0008C9.73559 13.3246 12.2568 13.3234 14.3659 11.9973Z" fill="#454545"/>
</svg>
