<svg width="20" height="20" viewBox="0 0 20 20" fill="none" xmlns="http://www.w3.org/2000/svg">
<path d="M3.23614 3.23657C-0.56667 7.04181 -0.56667 13.2117 3.23614 17.0169C7.04138 20.8197 13.2113 20.8197 17.0165 17.0169C20.8193 13.2117 20.8193 7.04181 17.0165 3.239C13.2113 -0.566241 7.04138 -0.566241 3.23614 3.23657ZM13.6454 6.04745C14.014 5.68124 14.5718 6.23905 14.2056 6.60769L10.6866 10.1267L14.2056 13.6458C14.5718 14.0144 14.014 14.5723 13.6454 14.206L10.1263 10.687L6.60483 14.206C6.23862 14.5747 5.67838 14.0144 6.04702 13.6482L9.56851 10.1267L6.04702 6.60526C5.67838 6.23905 6.23862 5.67881 6.60483 6.04745L10.1263 9.56893L13.6454 6.04745Z" fill="#93186C"/>
</svg>
