<svg width="24" height="24" viewBox="0 0 24 24" fill="none" xmlns="http://www.w3.org/2000/svg">
<g clip-path="url(#clip0_5859_27089)">
<path d="M21.5 16.0823C21.4316 16.3287 21.2933 16.527 21.1146 16.701C20.9566 16.8544 20.8096 17.0198 20.6534 17.1756C20.2354 17.5926 19.685 17.6088 19.2454 17.2195C19.1875 17.1685 19.1347 17.1113 19.081 17.0555C16.966 14.8618 14.8515 12.6672 12.7361 10.4739C12.4807 10.2094 12.5386 10.2056 12.2859 10.4677C10.1623 12.6695 8.03859 14.8718 5.91721 17.0755C5.6618 17.341 5.37883 17.5154 5.00031 17.4825C4.74719 17.4606 4.54185 17.3467 4.36546 17.168C4.18952 16.9902 4.01587 16.8096 3.84361 16.6276C3.38837 16.1462 3.38562 15.5381 3.84361 15.0615C4.86387 13.9987 5.88735 12.9398 6.90945 11.8789C8.50255 10.2256 10.0957 8.57236 11.6892 6.91957C12.2276 6.36102 12.7885 6.36006 13.3255 6.91719C15.9067 9.59654 18.4884 12.2764 21.0728 14.9533C21.2579 15.1454 21.4169 15.3484 21.5 15.6091V16.0828V16.0823Z" fill="#333333"/>
</g>
<defs>
<clipPath id="clip0_5859_27089">
<rect width="11" height="18" fill="333333" transform="matrix(0 1 -1 0 21.5 6.5)"/>
</clipPath>
</defs>
</svg>
